<svg width="194" height="194" viewBox="0 0 194 194" fill="none" xmlns="http://www.w3.org/2000/svg">
<g filter="url(#filter0_d_304_3)">
<path fill-rule="evenodd" clip-rule="evenodd" d="M40.8571 41.8574C42.6855 40.0296 45.165 39.0028 47.7504 39.0028C50.3357 39.0028 52.8152 40.0296 54.6436 41.8574L96.5004 83.7142L138.357 41.8574C139.257 40.9262 140.332 40.1834 141.522 39.6724C142.711 39.1614 143.991 38.8925 145.285 38.8812C146.58 38.87 147.864 39.1167 149.062 39.6069C150.26 40.0971 151.349 40.8211 152.264 41.7366C153.18 42.652 153.904 43.7406 154.394 44.9389C154.884 46.1371 155.131 47.421 155.12 48.7156C155.109 50.0102 154.84 51.2896 154.329 52.4791C153.818 53.6687 153.075 54.7445 152.144 55.6439L110.287 97.5007L152.144 139.357C153.92 141.196 154.902 143.659 154.88 146.216C154.858 148.772 153.833 151.217 152.025 153.025C150.217 154.833 147.772 155.858 145.215 155.88C142.659 155.903 140.196 154.92 138.357 153.144L96.5004 111.287L54.6436 153.144C52.8047 154.92 50.3419 155.903 47.7854 155.88C45.229 155.858 42.7836 154.833 40.9759 153.025C39.1681 151.217 38.1427 148.772 38.1205 146.216C38.0983 143.659 39.0811 141.196 40.8571 139.357L82.7139 97.5007L40.8571 55.6439C39.0293 53.8155 38.0024 51.336 38.0024 48.7507C38.0024 46.1653 39.0293 43.6858 40.8571 41.8574V41.8574Z" fill="white"/>
</g>
<defs>
<filter id="filter0_d_304_3" x="0.00244141" y="0.880859" width="193.118" height="193" filterUnits="userSpaceOnUse" color-interpolation-filters="sRGB">
<feFlood flood-opacity="0" result="BackgroundImageFix"/>
<feColorMatrix in="SourceAlpha" type="matrix" values="0 0 0 0 0 0 0 0 0 0 0 0 0 0 0 0 0 0 127 0" result="hardAlpha"/>
<feOffset/>
<feGaussianBlur stdDeviation="19"/>
<feComposite in2="hardAlpha" operator="out"/>
<feColorMatrix type="matrix" values="0 0 0 0 0 0 0 0 0 0 0 0 0 0 0 0 0 0 0.09 0"/>
<feBlend mode="normal" in2="BackgroundImageFix" result="effect1_dropShadow_304_3"/>
<feBlend mode="normal" in="SourceGraphic" in2="effect1_dropShadow_304_3" result="shape"/>
</filter>
</defs>
</svg>
